<svg xmlns="http://www.w3.org/2000/svg" id="Mark_s_List" data-name="Mark's List" viewBox="0 0 100 100"><defs><style>.cls-1{fill:#2faae1}</style></defs><g id="Box"><path d="M51.6 39.2a18.6 18.6 0 0 0-16.5 9.9 18.7 18.7 0 0 0-27.6-6.2V27.2a3.7 3.7 0 0 0-7.5 0v31a18.7 18.7 0 0 0 35.1 8.4 18.7 18.7 0 1 0 16.5-27.4M18.7 69a11.2 11.2 0 1 1 11.1-11.2A11.2 11.2 0 0 1 18.7 69m33 0a11.2 11.2 0 1 1 11.1-11.2A11.2 11.2 0 0 1 51.6 69" class="cls-1"/><path d="M99.2 70.2L89.1 57.8l10.1-12.5a3.5 3.5 0 0 0-.9-5.2 4.3 4.3 0 0 0-5.6.7L84 51.6l-8.7-10.8a4.3 4.3 0 0 0-5.6-.7 3.5 3.5 0 0 0-.8 5.2l10 12.5-10.1 12.4a3.5 3.5 0 0 0 .8 5.2 4.3 4.3 0 0 0 5.6-.7L84 64l8.7 10.7a4.3 4.3 0 0 0 5.6.7 3.5 3.5 0 0 0 .9-5.2" class="cls-1"/></g></svg>