<svg xmlns="http://www.w3.org/2000/svg" data-name="Ebene 1" viewBox="0 0 39.7 39.7"><defs><linearGradient id="a" x1="19.8" x2="19.8" y1="789.44" y2="749.75" gradientTransform="translate(0 -749.75)" gradientUnits="userSpaceOnUse"><stop offset="0" stop-color="#9d206d"/><stop offset="1" stop-color="#ed7577"/></linearGradient></defs><circle cx="19.8" cy="19.8" r="19.8" fill="url(#a)"/><path fill="#fff" d="M19.8 4.3a15.5 15.5 0 1 0 15.5 15.5A15.51 15.51 0 0 0 19.8 4.3zm0 26.7A11.05 11.05 0 0 1 8.7 20a11.6 11.6 0 0 1 3.8-8.5 3.32 3.32 0 0 0-.3 2.4c.6 2.1 3.4 3 6.1 2.2s4.4-3.2 3.8-5.3a3.38 3.38 0 0 0-2.3-2.2 11.14 11.14 0 0 1 11.1 11.1A11.06 11.06 0 0 1 19.8 31z"/></svg>