<svg xmlns="http://www.w3.org/2000/svg" viewBox="0 0 31 31"><path fill="#0D5182" d="M20 30.1c0 .1-.1.2-.1.3-.1.1-.2.2-.4.2-.2.1-.4.1-.7.2-.3 0-.7.1-1.1.1h-1.1c-.3 0-.5 0-.7-.1-.2 0-.3-.1-.3-.2-.1-.1-.1-.2-.1-.3l2-15.4c0-.1.1-.2.1-.3.1-.1.2-.2.4-.3.2-.1.4-.1.7-.2.3-.1.6-.1 1.1-.1h1.1c.3 0 .5.1.7.1.2.1.3.1.3.2.1.1.1.2.1.3l-2 15.5zm3.2-19.5c-.1.4-.1.8-.3 1.1-.1.3-.3.5-.5.7-.2.2-.5.3-.8.4-.3.1-.8.2-1.3.2h-1.2c-.3-.1-.6-.2-.7-.3-.2-.2-.4-.4-.4-.7v-1.1c.1-.4.1-.8.3-1.1.1-.3.3-.5.5-.7.2-.2.5-.3.8-.5.3-.1.8-.2 1.3-.2h1.2c.3.1.6.2.7.3.2.3.4.5.4.8v1.1zM17 4.2c-.1 0-.3 0-.4.1-1.9 1-3.2 2.7-3.7 4.7-.5 1.9-.2 4 .8 5.7.2.3.4.4.7.4.2 0 .3 0 .4-.1.4-.2.5-.8.3-1.2-.8-1.3-1-2.9-.6-4.4.5-1.5 1.5-2.8 2.9-3.6.4-.3.6-.8.4-1.2-.2-.3-.5-.4-.8-.4"/><path fill="#0D5182" d="M11.4 14.9c-1.1-1.9-1.5-4.2-.9-6.4.7-2.6 2.5-4.8 5-6.2.7-.3.9-1.1.5-1.7-.3-.6-1-.8-1.6-.4C11.3 1.9 9 4.7 8.2 7.9c-.8 2.9-.4 5.8 1.1 8.3.4.6 1.1.8 1.7.4.6-.4.8-1.1.4-1.7z"/></svg>