<?xml version="1.0" encoding="UTF-8" standalone="no"?>
<svg
   xmlns:dc="http://purl.org/dc/elements/1.1/"
   xmlns:cc="http://creativecommons.org/ns#"
   xmlns:rdf="http://www.w3.org/1999/02/22-rdf-syntax-ns#"
   xmlns:svg="http://www.w3.org/2000/svg"
   xmlns="http://www.w3.org/2000/svg"
   xmlns:sodipodi="http://sodipodi.sourceforge.net/DTD/sodipodi-0.dtd"
   xmlns:inkscape="http://www.inkscape.org/namespaces/inkscape"
   version="1.0"
   width="250.000000pt"
   height="250.000000pt"
   viewBox="0 0 250.000000 250.000000"
   preserveAspectRatio="xMidYMid meet"
   id="svg2"
   inkscape:version="0.91 r13725"
   sodipodi:docname="richcall.ico.COLOR.svg">
  <metadata
     id="metadata12">
    <rdf:RDF>
      <cc:Work
         rdf:about="">
        <dc:format>image/svg+xml</dc:format>
        <dc:type
           rdf:resource="http://purl.org/dc/dcmitype/StillImage" />
        <dc:title></dc:title>
      </cc:Work>
    </rdf:RDF>
  </metadata>
  <defs
     id="defs10" />
  <sodipodi:namedview
     pagecolor="#ffffff"
     bordercolor="#666666"
     borderopacity="1"
     objecttolerance="10"
     gridtolerance="10"
     guidetolerance="10"
     inkscape:pageopacity="0"
     inkscape:pageshadow="2"
     inkscape:window-width="1536"
     inkscape:window-height="801"
     id="namedview8"
     showgrid="false"
     inkscape:zoom="0.5056"
     inkscape:cx="-512.74185"
     inkscape:cy="-45.327542"
     inkscape:window-x="-8"
     inkscape:window-y="-8"
     inkscape:window-maximized="1"
     inkscape:current-layer="layer2" />
  <g
     inkscape:groupmode="layer"
     id="layer2"
     inkscape:label="Layer 2"
     style="display:inline">
    <path
       style="fill:#fad536;fill-opacity:1"
       d="m 0.20924029,0.20992938 0,249.78957062 249.79056971,0 0,-249.78957062 -249.79056971,0 z"
       id="rect3344"
       inkscape:connector-curvature="0" />
  </g>
  <g
     inkscape:groupmode="layer"
     id="layer1"
     inkscape:label="Layer 1"
     style="display:inline">
    <g
       style="fill:#000000;stroke:none"
       transform="matrix(0.1,0,0,-0.1,0,250)"
       id="g4">
      <path
         d="m 1139,2295 c -54,-13 -99,-47 -190,-142 C 800,1999 711,1813 663,1555 641,1440 639,1053 658,940 719,596 855,361 1079,214 l 44,-29 334,-3 c 210,-2 333,0 333,6 0,16 -132,375 -150,407 l -17,30 -179,5 c -127,4 -188,10 -208,20 -43,22 -110,109 -136,177 -58,155 -64,194 -64,423 0,190 3,224 22,294 29,104 61,171 107,224 61,70 88,78 270,86 88,4 163,10 167,14 9,9 189,425 185,427 -1,2 -137,5 -302,7 -211,4 -314,2 -346,-7 z"
         id="path6"
         inkscape:connector-curvature="0" />
    </g>
  </g>
</svg>
