<svg xmlns="http://www.w3.org/2000/svg" viewBox="0 0 512 512"><defs><style>.cls-1{fill:none}</style><radialGradient id="radial-gradient" cx="254.14" cy="513.88" r="252.66" gradientTransform="translate(.41 -255.61)" gradientUnits="userSpaceOnUse"><stop offset=".18" stop-color="#6298fb"/><stop offset=".96" stop-color="#4270ea"/></radialGradient><radialGradient id="radial-gradient-2" cx="257.18" cy="513.1" r="289.03" gradientTransform="translate(.41 -255.61)" gradientUnits="userSpaceOnUse"><stop offset=".51" stop-color="#e69200"/><stop offset="1" stop-color="#ffb600"/></radialGradient><radialGradient id="radial-gradient-3" cx="257.36" cy="512.17" r="306.66" gradientTransform="translate(.41 -255.61)" gradientUnits="userSpaceOnUse"><stop offset=".51" stop-color="#e12935"/><stop offset="1" stop-color="#eb7078"/></radialGradient><linearGradient id="linear-gradient" x1="245.24" x2="416.3" y1="614.83" y2="144.85" gradientTransform="translate(0 -256)" gradientUnits="userSpaceOnUse"><stop offset="0" stop-color="#e5414b"/><stop offset="1" stop-color="#ef888f"/></linearGradient><clipPath id="clip-path"><path d="M324.3 113.2a157.65 157.65 0 0 1 37 24.8l40.4-40.3a20.86 20.86 0 0 0-2-31.3c-5.5-4.2-11-8-16.9-11.7z" class="cls-1"/></clipPath><linearGradient id="linear-gradient-2" x1="245.35" x2="353.65" y1="614.85" y2="317.29" gradientTransform="translate(0 -256)" gradientUnits="userSpaceOnUse"><stop offset="0" stop-color="#c00e19"/><stop offset="1" stop-color="#e12935"/></linearGradient></defs><g id="Layer_2" data-name="Layer 2"><g id="Layer_1-2" data-name="Layer 1"><path fill="url(#radial-gradient)" d="M356.2 378.5a158.23 158.23 0 0 1-105.7 35.7c-82.9-2.8-149.8-69.8-152.7-152.6a158.23 158.23 0 0 1 35.7-105.7 5.33 5.33 0 0 0-.3-7L84 99.7a5.12 5.12 0 0 0-7.6.2 236.72 236.72 0 0 0-58.3 159.6c1.8 127.2 107.2 232.6 234.4 234.4a236.31 236.31 0 0 0 159.6-58.4 5.12 5.12 0 0 0 .2-7.6l-49.1-49.1a5.33 5.33 0 0 0-7-.3z"/><path fill="url(#radial-gradient-2)" d="M414 228.6a5.44 5.44 0 0 0-1.5 4.4 157.84 157.84 0 0 1-34.1 123.2 5.22 5.22 0 0 0 .4 7l49.1 49.1a5.32 5.32 0 0 0 7.7-.3 237.92 237.92 0 0 0 43.8-238.2 5.23 5.23 0 0 0-8.6-1.9z"/><path fill="url(#radial-gradient-3)" d="M396.4 182.9l58.1-58.1A237.94 237.94 0 0 0 100 76.4a5.24 5.24 0 0 0-.3 7.7l49.1 49.2a5.23 5.23 0 0 0 7 .4 158.33 158.33 0 0 1 240.6 49.2z"/><path fill="url(#linear-gradient)" d="M456 156.4a20 20 0 0 0 2.9-24.6 239.33 239.33 0 0 0-41.4-50.4c-5.7-5.2-11.6-10.2-17.8-14.9a20.86 20.86 0 0 1 3.9 28.8l-149 149-42.8-42.8a20 20 0 0 0-28.3 0l-28.4 28.4a20 20 0 0 0 0 28.3l85.5 85.4a19.92 19.92 0 0 0 28.2 0z"/><g clip-path="url(#clip-path)"><path fill="url(#linear-gradient-2)" d="M458.9 131.6a244 244 0 0 0-41.3-50.3c-5.7-5.2-11.6-10.2-17.8-14.9a20.86 20.86 0 0 1 3.9 28.8l-149 149-42.7-42.7a20 20 0 0 0-28.4 0l-28.3 28.4a20 20 0 0 0 0 28.4l85.4 85.2a20.16 20.16 0 0 0 28.4 0l187-187.1a20.23 20.23 0 0 0 2.8-24.8z"/></g><path d="M0 0h512v512H0z" class="cls-1"/></g></g></svg>