<svg xmlns="http://www.w3.org/2000/svg" xmlns:xlink="http://www.w3.org/1999/xlink" viewBox="0 0 100 100"><defs><path id="a" d="M0 0h100v100H0z"/><path id="b" d="M50 100c27.614 0 50-22.386 50-50S77.614 0 50 0 0 22.386 0 50s22.386 50 50 50z"/><path id="d" d="M.98.98h98.04v98.04H.98z"/><path id="e" d="M50 99.02c27.072 0 49.02-21.948 49.02-49.02C99.02 22.928 77.072.98 50 .98 22.928.98.98 22.928.98 50 .98 77.072 22.928 99.02 50 99.02z"/><path id="g" d="M4.902 4.902h90.196v90.196H4.902z"/><path id="h" d="M50 95.098c24.906 0 45.098-20.192 45.098-45.098S74.906 4.902 50 4.902 4.902 25.094 4.902 50 25.094 95.098 50 95.098z"/><path id="j" d="M20.588 34.314h57.843v31.372H20.588z"/><path id="k" d="M20.588 35.884V57.06c0 4.764 3.903 8.626 8.71 8.626h30.883c.875 0 1.584-.702 1.584-1.57V42.94c0-4.764-3.903-8.626-8.71-8.626H22.171c-.875 0-1.584.702-1.584 1.57zm43.137 8.26l12.746-9.298c1.11-.91 1.96-.699 1.96.979v28.387c0 1.88-1.059 1.668-1.96.978l-12.746-9.3V44.144z"/></defs><g fill="none" fill-rule="evenodd"><mask id="c" fill="#fff"><use xlink:href="#b"/></mask><path fill="#E6E6E6" d="M-2.451-2.451h104.902v104.902H-2.451z" mask="url(#c)"/><mask id="f" fill="#fff"><use xlink:href="#e"/></mask><path fill="#FFF" d="M-1.47-1.47h102.94v102.94H-1.47z" mask="url(#f)"/><mask id="i" fill="#fff"><use xlink:href="#h"/></mask><path fill="#2D8CFF" d="M2.451 2.451h95.098v95.098H2.451z" mask="url(#i)"/><mask id="l" fill="#fff"><use xlink:href="#k"/></mask><path fill="#FFF" d="M18.137 31.863h62.745v36.274H18.137z" mask="url(#l)"/></g></svg>